<svg xmlns="http://www.w3.org/2000/svg" xmlns:xlink="http://www.w3.org/1999/xlink" viewBox="0 0 512 512" style="enable-background:new 0 0 512 512" xml:space="preserve"><path style="fill:#78bede" d="M512 256.002C512 397.392 397.387 512 255.998 512 114.613 512 0 397.392 0 256.002S114.613 0 255.998 0C397.387 0 512 114.612 512 256.002z"/><defs><path id="a" d="M0 255.996C0 114.607 114.613 0 256.002 0 397.387 0 512 114.607 512 255.996 512 397.389 397.387 512 256.002 512 114.613 512 0 397.389 0 255.996z"/></defs><clipPath id="b"><use xlink:href="#a" style="overflow:visible"/></clipPath><g style="clip-path:url(#b)"><path style="fill:#f0b39c" d="M192.277 247.668c6.501 14.457 2.995 28.533-7.82 31.436-10.808 2.896-24.846-6.48-31.348-20.944-6.494-14.462-2.998-28.526 7.823-31.433 10.812-2.896 24.846 6.48 31.345 20.941zM324.039 247.433c-6.44 14.485-2.889 28.545 7.936 31.407 10.825 2.864 24.83-6.566 31.277-21.051 6.444-14.478 2.896-28.543-7.932-31.4-10.829-2.869-24.834 6.566-31.281 21.044zM297.698 369.61c.034 20.478-16.528 37.106-37.006 37.144l-4.494.005c-20.478.038-37.106-16.53-37.144-37.008l-.164-95.491c-.033-20.473 16.523-37.106 37.008-37.139l4.492-.012c20.473-.038 37.101 16.53 37.139 37.009l.169 95.492z"/><path style="fill:#ffdbc5" d="M346.453 253.122c.138 72.456-83.328 110.13-140.095 65.116-67.71-53.69-49.987-208.456 51.569-208.636 48.771-.088 88.352 40.671 88.44 90.975l.086 52.545z"/><path style="fill:#3d2a3d" d="m186.467 80 2.971 22.747-23.768-.708 15.937 26.236 31.398-25.407z"/><defs><path id="c" d="M346.453 253.122c.138 72.456-83.328 110.13-140.095 65.116-67.71-53.69-49.987-208.456 51.569-208.636 48.771-.088 88.352 40.671 88.44 90.975l.086 52.545z"/></defs><clipPath id="d"><use xlink:href="#c" style="overflow:visible"/></clipPath><circle style="clip-path:url(#d);fill:#f0b39c" cx="324.845" cy="295" r="25"/><circle style="clip-path:url(#d);fill:#f0b39c" cx="184.845" cy="295" r="25"/><g><path style="fill:#3d2a3d" d="m342.45 240.034 11.322.076.513-74.528-23.308-12.242zM166.008 239.799l11.316.071 12.684-86.53-24 11.919z"/></g><g><path style="fill:#c96a46" d="M285.451 288.166c-11.207 18.079-43.153 18.134-54.431.1-2.87-4.57-10.112-.357-7.23 4.247 14.646 23.433 54.343 23.362 68.914-.126 2.857-4.608-4.407-8.796-7.253-4.221z"/></g><path style="fill:#f0b39c" d="M272.329 250c-.449 7.895-7.047 14.157-15.202 14.157a15.196 15.196 0 0 1-14.576-10.712c-.424 1.452-.732 2.963-.732 4.546 0 9.028 7.327 16.353 16.339 16.353 9.035 0 16.335-7.325 16.335-16.353-.001-2.926-.819-5.618-2.164-7.991z"/><g><circle style="fill:#2961a5" cx="225.314" cy="240.096" r="9.904"/><circle style="fill:#2961a5" cx="290.997" cy="240.096" r="9.904"/></g><g><path style="fill:#f0b39c" d="m441.602 516-.053-.842c0-51.205-19.168-100.816-42.572-110.264l-99.68-40.158c-23.406-9.439-61.737-9.477-85.148-.112l-101.107 40.397c-23.425 9.378-42.593 58.933-42.593 110.138l-.051.841h371.204z"/><path style="fill:#704d70" d="M441.549 515.158c0-51.205-19.168-100.816-42.572-110.264l-79.255-31.93C308.704 397.166 284.326 414 256 414c-28.194 0-52.479-16.678-63.57-40.698l-79.387 31.719c-23.425 9.378-42.593 58.933-42.593 110.138l-.052.841h371.204l-.053-.842z"/></g></g><path style="clip-path:url(#b);fill:#3d2a3d" d="M256 93.963c-56.889 0-103.005 42.309-103.005 94.5 0 17.332 5.091 33.572 13.968 47.537l10.232-73.462 157.591-.006 10.252 73.467c8.876-13.965 13.967-30.204 13.967-47.535 0-52.193-46.117-94.501-103.005-94.501z"/><g style="clip-path:url(#b)"><path style="fill:#3d2a3d" d="M238.469 203.321a7.5 7.5 0 0 1-6.093 8.682l-22.162 3.883a7.5 7.5 0 1 1-2.589-14.775l22.163-3.883a7.5 7.5 0 0 1 8.681 6.093zM273.531 203.321a7.5 7.5 0 0 0 6.093 8.682l22.162 3.883a7.5 7.5 0 1 0 2.589-14.775l-22.163-3.883a7.5 7.5 0 0 0-8.681 6.093z"/></g></svg>